<svg width="90" height="65" viewBox="0 0 90 65" fill="none" xmlns="http://www.w3.org/2000/svg">
<path d="M41.4617 0.18266C25.8164 1.67119 11.5329 9.50705 4.45765 20.4885C-3.08267 32.2002 -0.890332 46.3272 9.77242 54.9775C21.4649 64.4142 43.7205 67.5598 65.2785 62.8134C72.2541 61.2968 79.6284 58.3759 82.5847 55.9886C83.7473 55.0337 83.8802 54.6124 83.1826 54.1349C82.8172 53.8822 82.1529 54.0226 80.0934 54.809C75.8084 56.4941 71.4569 57.9827 68.9324 58.6286C65.9428 59.415 60.9603 60.2857 60.7277 60.0891C60.462 59.8644 63.9166 57.3648 65.8764 56.3818C66.8397 55.8762 69.5967 54.7247 72.0548 53.826C79.2298 51.1298 85.0096 48.4617 86.903 47.0012C87.7334 46.3553 87.8663 45.3442 87.1687 44.8667C86.8033 44.614 85.375 45.0914 80.5917 47.0574C70.9254 51.0175 65.9761 52.2532 62.7872 51.5792C61.9236 51.4107 60.5616 50.9332 59.7312 50.54C58.0371 49.6974 57.9043 49.7817 62.3886 48.7706C69.0653 47.254 77.8679 43.8556 79.728 42.0863C80.9571 40.8786 80.9238 39.699 79.6616 39.5586C79.1633 39.5024 76.7052 40.2326 73.8486 41.2718C68.9988 43.0412 64.4481 44.1927 59.399 44.8948C55.6123 45.4565 41.8271 45.3442 37.6417 44.7263C26.0821 43.0693 17.4124 39.7271 12.5959 35.093C5.35452 28.1558 9.20772 17.8204 21.7639 10.6305C26.5804 7.87809 31.7955 5.94019 37.2763 4.78869C41.3288 3.97421 43.1226 3.91803 40.5648 4.67634C32.7588 7.03553 26.2482 12.6526 24.3548 18.7191C23.624 21.0502 23.7237 25.7124 24.5541 28.2682C25.1852 30.2903 26.5471 32.481 27.1451 32.481C27.2779 32.481 27.6433 31.3857 27.9755 30.0657C29.7692 22.286 34.2203 15.0118 40.0666 10.2373C46.6104 4.90103 53.8185 3.46867 62.7208 5.74359C64.5145 6.19296 64.5145 6.22105 63.3851 6.27722C50.8622 7.11978 43.6208 11.3607 41.2624 19.2527C40.4984 21.8366 40.7309 26.6954 41.7607 28.9141C42.4914 30.515 44.2852 32.7619 44.9827 32.9585C45.182 33.0146 45.481 32.1721 45.7135 30.8521C46.5439 26.3303 48.9356 21.2749 52.2905 16.9778C56.1437 12.0628 62.3222 9.39471 68.1352 10.1249C69.5967 10.3215 72.686 11.782 72.686 12.2875C72.686 12.4279 71.9552 12.5403 71.0915 12.5403C67.7698 12.5403 63.4515 14.422 61.6246 16.6689C59.3658 19.4493 58.4357 23.5217 59.399 26.4426C59.8309 27.7907 61.5249 30.2342 61.99 30.2342C62.1229 30.2342 62.6543 28.9984 63.1526 27.4818C64.5477 23.1847 66.3747 20.3481 69.1981 17.9889C72.0548 15.6016 74.0479 14.7871 75.6755 15.3488C76.9378 15.7982 78.2997 17.4272 79.9938 20.4885C81.8539 23.8307 82.6511 26.6954 83.0497 31.3576C83.4151 35.7108 83.8802 37.2555 84.9099 37.2555C86.0061 37.2555 88.5638 35.3176 89.5936 33.6887C91.2544 30.9644 87.6005 21.1906 82.7176 15.3488C78.1668 9.92834 69.2646 4.45166 61.1596 2.12056C55.0476 0.379259 47.3744 -0.379051 41.4617 0.18266ZM6.68321 30.8521C6.94895 31.835 7.08182 32.7057 7.01538 32.818C6.78286 33.1831 5.42095 33.0708 4.75661 32.6495C4.15869 32.2844 4.15869 32.2282 4.88947 30.6835C5.3213 29.8129 5.78634 29.1107 5.91921 29.1107C6.0853 29.1107 6.41747 29.8971 6.68321 30.8521ZM9.5399 36.75C10.9682 37.9858 10.9018 38.6598 9.37381 38.6598C7.84581 38.6598 7.0486 38.2666 6.41747 37.2275C5.75312 36.1883 5.98565 35.8513 7.38077 35.8513C8.2112 35.8513 8.7759 36.104 9.5399 36.75ZM5.25486 39.8394C6.11851 41.0471 6.41747 42.8727 5.91921 44.1084C5.71991 44.6701 5.42095 45.1195 5.28808 45.1195C4.42443 45.1195 3.29505 41.1314 3.72687 39.6709C4.02583 38.6879 4.45765 38.7441 5.25486 39.8394ZM15.9176 42.1705C17.4788 43.0412 17.4456 43.4905 15.818 43.8276C14.2235 44.1646 12.463 43.8276 11.234 42.985C10.0049 42.0863 10.0049 41.8897 11.1675 41.4965C12.4962 41.0471 14.4228 41.328 15.9176 42.1705ZM10.0049 45.5127C11.4333 46.8046 12.2637 49.7255 11.5994 51.1298C11.3668 51.6073 11.2672 51.5792 10.1046 50.7366C8.0119 49.1638 7.48042 47.6753 8.27764 45.7093C8.70946 44.6701 9.04164 44.614 10.0049 45.5127ZM24.4877 45.9059C25.2849 46.3272 25.9492 46.7765 25.9825 46.9451C25.9825 47.3944 23.8898 48.4617 22.6607 48.6583C21.1327 48.911 19.5051 48.6021 18.1764 47.8438C16.8145 47.0855 16.748 46.6361 17.9107 45.9059C19.8373 44.6982 22.096 44.6982 24.4877 45.9059ZM35.6487 48.6021C37.077 49.1357 37.1102 49.5289 35.7483 50.6804C34.2868 51.86 32.5595 52.4217 30.3671 52.4217C28.4073 52.4217 25.8496 51.7196 25.8496 51.186C25.8828 50.3715 27.9091 49.0796 30.1678 48.4055C31.1976 48.0966 34.5525 48.237 35.6487 48.6021ZM48.8692 49.5851C49.5667 49.7255 50.2311 49.9221 50.3639 50.0064C50.7293 50.3153 47.6401 52.7026 45.9793 53.4047C44.0194 54.2473 40.4984 54.3596 38.605 53.6856L37.4092 53.2643L38.14 52.4217C39.1033 51.2702 41.3288 50.2311 43.8533 49.7536C46.3779 49.3042 47.2083 49.2762 48.8692 49.5851ZM19.0068 51.5792C19.7044 52.2251 20.4684 53.18 20.7341 53.7137C21.1659 54.6124 21.3985 57.1963 21.0331 57.1963C20.3355 57.1963 17.4788 55.6516 16.6152 54.8371C15.3861 53.6294 15.0207 52.3656 15.5522 50.7928C15.9176 49.6132 15.9176 49.6132 16.8477 50.0064C17.346 50.2311 18.3093 50.9332 19.0068 51.5792ZM57.2731 53.9383C58.2032 54.3035 59.1001 54.7528 59.1997 54.9213C59.5651 55.3988 57.1403 57.421 55.5458 57.9265C54.2836 58.3197 53.8518 58.3478 52.6891 58.0669C51.3272 57.7018 48.7695 56.438 48.7695 56.1009C48.7695 55.7358 53.9514 53.2924 54.7486 53.2924C55.2137 53.2643 56.343 53.5732 57.2731 53.9383ZM29.736 55.3426C31.2308 55.9886 33.1242 57.6456 33.6889 58.7691C34.4529 60.3138 34.3532 60.5384 32.7588 60.3699C28.7395 59.9767 27.2779 59.1342 26.0157 56.4941L25.2185 54.809L25.9492 54.6405C26.8461 54.4439 28.3409 54.7247 29.736 55.3426ZM43.0894 56.9435C45.182 57.2524 45.3813 57.3648 47.3744 59.1342L49.5003 60.9878L48.537 61.3248C45.5142 62.3921 42.0596 61.8585 39.5683 59.9487C37.7082 58.4882 36.8777 57.2244 37.5421 56.8873C38.14 56.5503 40.5316 56.5784 43.0894 56.9435Z" fill="#C39049"/>
</svg>
